<?xml version="1.0" standalone="no"?><!DOCTYPE svg PUBLIC "-//W3C//DTD SVG 1.1//EN" "http://www.w3.org/Graphics/SVG/1.1/DTD/svg11.dtd"><svg t="1599999999054" class="icon" viewBox="0 0 1024 1024" version="1.1" xmlns="http://www.w3.org/2000/svg"  xmlns:xlink="http://www.w3.org/1999/xlink" width="200" height="200"><defs><style type="text/css"></style></defs><path d="M466.7371425 72.16353431c-253.56877136 0-407.10059612 186.83107738-407.10059613 361.91064701 0 74.82389785 23.64883228 170.24110339 91.06921396 251.79908576 14.27016141 13.18979154 23.51627156 37.11700133 20.52702734 52.88509886-7.4101442 67.2745649-38.05818243 86.17772342-38.05818242 86.17772344-14.81366035 15.07878178 4.7589298 30.30338036 26.64470451 26.37295504 50.29353679-9.11354943 93.65414798-26.24039434 159.44403283-50.77075539 18.14756244-9.17982979 21.07052629-6.6545481 35.34068769-3.53274316 226.32091557 78.77420727 519.30661673-91.55306058 519.30661673-362.91810846-0.00662803-165.78043519-155.16894964-361.92390309-407.17350451-361.9239031z" p-id="33082" fill='#8590a6'></path><path d="M925.49002277 507.67189252c34.2536898 44.71935856 38.87343085 90.93002521 38.87343086 142.51602902 0 54.03174907-28.00345189 140.69331913-61.84620345 178.12846616-9.51785963 10.4722968-16.03984701 21.13680665-13.99841193 32.62319295 5.43498947 48.59675958 27.79135474 67.89760029 27.79135473 67.89760028 10.74404627 10.876607-8.49051406 25.49142627-24.25861157 22.62811474-36.29512486-6.52198738-67.55294241-19.02909121-115.12898447-36.61989862-13.18316351-6.60152381-15.22459858-4.83183821-25.48479822-2.59156207-92.42796133 32.14597437-198.93387103 21.54111683-275.18942464-41.92895542 269.81408748-23.64883228 394.73268105-137.01475918 449.23502066-362.58670667v-0.06628037z" fill='#8590a6'></path></svg>