<?xml version="1.0" standalone="no"?><!DOCTYPE svg PUBLIC "-//W3C//DTD SVG 1.1//EN" "http://www.w3.org/Graphics/SVG/1.1/DTD/svg11.dtd"><svg t="1600074656637" class="icon" viewBox="0 0 1024 1024" version="1.1" xmlns="http://www.w3.org/2000/svg" p-id="33931" xmlns:xlink="http://www.w3.org/1999/xlink" width="200" height="200"><defs><style type="text/css"></style></defs><path d="M 874.674 528.707 a 23.1197 23.1197 0 0 0 0 -34.0253 l -57.7993 -51.9104 a 22.5527 22.5527 0 0 1 -6.2816 -24.0358 l 24.0795 -73.7215 a 23.1634 23.1634 0 0 0 -17.0563 -29.6631 l -75.9026 -15.8785 a 23.0325 23.0325 0 0 1 -17.7979 -17.7979 l -15.9222 -75.5537 a 23.1634 23.1634 0 0 0 -29.6631 -17.0126 l -73.7215 24.0358 a 22.5527 22.5527 0 0 1 -24.0358 -6.2816 L 528.707 148.715 a 23.1197 23.1197 0 0 0 -34.0253 0 l -51.9104 57.7558 a 22.5527 22.5527 0 0 1 -24.0358 6.32523 l -73.7215 -23.7305 a 23.1634 23.1634 0 0 0 -29.6631 17.0563 l -15.8785 75.9026 a 23.0325 23.0325 0 0 1 -17.7979 17.7979 l -75.5537 15.5732 a 23.1634 23.1634 0 0 0 -17.0126 29.6194 l 24.0358 73.7215 a 22.5527 22.5527 0 0 1 -6.2816 24.0795 L 148.715 494.639 a 23.1197 23.1197 0 0 0 0 34.0688 l 57.7558 51.8667 a 22.5527 22.5527 0 0 1 6.32523 24.0795 l -23.7305 73.7215 a 23.1634 23.1634 0 0 0 17.0563 29.6194 l 75.9026 15.9222 a 23.0325 23.0325 0 0 1 17.7979 17.7542 l 15.9222 75.9462 a 23.1634 23.1634 0 0 0 29.6631 17.0126 l 73.7215 -24.0358 a 22.5527 22.5527 0 0 1 24.0358 6.2816 l 51.8667 57.7993 a 23.1197 23.1197 0 0 0 34.0253 0 l 51.9104 -57.7993 a 22.5527 22.5527 0 0 1 24.0358 -6.2816 l 73.7215 24.0795 a 23.1634 23.1634 0 0 0 29.6631 -17.0563 l 15.8785 -75.9026 a 23.0325 23.0325 0 0 1 17.7979 -17.7979 l 75.9026 -15.9222 a 23.1634 23.1634 0 0 0 17.0563 -29.6631 l -24.0795 -73.7215 a 22.5527 22.5527 0 0 1 6.32522 -24.0358 l 57.4068 -51.8667 Z m -155.207 -100.33 l -247.424 247.382 a 34.4616 34.4616 0 0 1 -24.4284 10.033 a 34.4616 34.4616 0 0 1 -24.4284 -10.033 L 281.675 534.29 a 34.8978 34.8978 0 0 1 0 -48.9004 a 34.8978 34.8978 0 0 1 48.8569 0 l 117.082 117.038 l 222.953 -222.953 a 34.8978 34.8978 0 0 1 48.9004 0 a 34.1997 34.1997 0 0 1 0 48.8569 Z" fill="#1296db" p-id="33932"></path></svg>